<svg viewBox="0 0 23.673 45.344" xmlns="http://www.w3.org/2000/svg"><path d="m1412.507 1885.678c1.4-.051 2.806-.013 4.217-.013h.579v-7.312c-.75-.071-1.535-.181-2.32-.218-1.441-.064-2.884-.136-4.327-.1a10.613 10.613 0 0 0 -6.107 1.886 9.145 9.145 0 0 0 -3.667 6.1 21.484 21.484 0 0 0 -.256 3.135c-.04 1.641-.006 3.278 0 4.919v.616h-6.993v8.163h6.951v20.516h8.494v-20.482h6.922c.354-2.718.7-5.4 1.065-8.2-.556 0-1.056 0-1.556 0-1.971.009-6.494 0-6.494 0s.02-4.045.068-5.8c.072-2.408 1.496-3.142 3.424-3.21z" fill="#ff0" fill-rule="evenodd" transform="translate(-1393.629 -1878.025)"/></svg>