<svg viewBox="0 0 38.514 38.512" xmlns="http://www.w3.org/2000/svg"><path d="m1459.556 1884.817h-26.471a6.027 6.027 0 0 0 -6.021 6.025v26.469a6.022 6.022 0 0 0 6.021 6.019h26.471a6.022 6.022 0 0 0 6.022-6.019v-26.469a6.027 6.027 0 0 0 -6.022-6.025zm-4.991 5.311a1.072 1.072 0 0 1 1.076-1.072h4.649a1.073 1.073 0 0 1 1.076 1.072v4.653a1.075 1.075 0 0 1 -1.076 1.072h-4.649a1.074 1.074 0 0 1 -1.076-1.072zm-15.343 11.168a7.621 7.621 0 0 1 14.2 0 7.547 7.547 0 0 1 .527 2.78 7.626 7.626 0 1 1 -15.252 0 7.488 7.488 0 0 1 .524-2.776zm22.279 16.014a1.949 1.949 0 0 1 -1.944 1.944h-26.471a1.948 1.948 0 0 1 -1.943-1.944v-16.01h3.806a11.707 11.707 0 1 0 22.744 0h3.808z" fill="#ff0" fill-rule="evenodd" transform="translate(-1427.064 -1884.817)"/></svg>