<svg width="183" height="182" viewBox="0 0 183 182" fill="none" xmlns="http://www.w3.org/2000/svg">
<path d="M62.8765 105.455C62.8765 109.497 62.9396 113.5 62.8614 117.5C62.7525 123.045 59.0574 127.566 53.6625 128.87C52.4032 129.175 51.1245 129.376 49.8214 129.05C48.7773 128.808 47.8462 128.219 47.18 127.38C46.5137 126.541 46.1517 125.5 46.153 124.428C46.1543 123.357 46.5188 122.317 47.187 121.479C47.8553 120.641 48.7879 120.055 49.8325 119.815C50.292 119.713 50.7593 119.65 51.2294 119.626C55.1851 119.388 58.1231 116.365 58.1386 112.392C58.1693 104.538 58.1532 96.6849 58.1449 88.8314C58.1431 87.0404 57.3972 86.2475 55.647 86.0931C51.4081 85.7196 48.7692 82.949 48.5241 78.6153C48.3061 74.7621 45.4606 71.8649 41.7047 71.6693C38.0049 71.477 34.8799 74.0245 34.2196 77.7709C33.5654 81.4813 36.2587 85.294 40.0146 85.9112C41.0955 86.0888 42.2123 86.0526 43.2902 86.2411C48.8517 87.2143 52.8397 91.562 53.2348 97.2182C53.4316 100.031 53.6016 102.878 52.9467 105.662C51.5994 111.389 46.0033 115.4 40.3342 114.766C34.0634 114.066 29.5065 109.215 29.3896 103.092C29.3587 101.483 29.3646 99.8723 29.383 98.2626C29.4006 96.7377 30.3407 95.7036 31.6924 95.6704C33.0356 95.6379 33.998 96.6271 34.1133 98.1584C34.5115 103.455 39.511 106.684 44.1866 104.665C45.7013 104.018 46.9483 102.871 47.7201 101.415C48.4918 99.9602 48.7416 98.2844 48.428 96.6673C48.1143 95.0502 47.256 93.5894 45.9961 92.5283C44.7362 91.4671 43.1508 90.8696 41.5039 90.8354C35.1544 90.6066 30.4621 86.7237 29.5562 80.6139C29.0733 77.5804 29.1127 74.4868 29.6728 71.4667C30.8155 65.6802 36.2656 61.7197 42.3346 62.1173C47.9458 62.4849 52.7466 67.1813 53.2099 72.8518C53.36 74.6867 53.2975 76.5389 53.331 78.3832C53.3666 80.3294 54.0332 81.0447 55.9772 81.2186C60.0992 81.5871 62.8383 84.5649 62.8913 88.7225C62.9054 89.8198 62.8413 90.9167 63.0254 92.0125C63.6284 95.6027 66.8977 98.2649 70.4639 98.0387C74.2737 97.7969 77.1718 94.8621 77.3104 91.1055C77.3844 89.3218 76.7882 87.575 75.6391 86.2088C74.4899 84.8425 72.8711 83.9559 71.101 83.7234C70.4007 83.6314 69.6831 83.6274 68.9976 83.4747C66.7061 82.9645 65.2106 80.7986 65.4156 78.361C65.5188 77.2377 66.024 76.1893 66.8382 75.4086C67.6525 74.6278 68.7212 74.1671 69.8479 74.1112C75.6601 73.8209 81.2514 78.3796 81.9037 84.1687C82.3963 88.4645 82.408 92.8018 81.9388 97.1001C80.9703 105.789 71.4018 110.344 63.8877 105.847C63.6275 105.692 63.418 105.421 62.8765 105.455Z" fill="#FFFF00"/>
<path d="M114.458 100.406C119.593 100.777 123.209 103.016 125.368 107.444C126.064 108.9 126.439 110.489 126.468 112.103C126.601 116.546 129.236 119.286 133.705 119.637C136.607 119.865 138.643 122.043 138.461 124.725C138.275 127.477 135.929 129.394 132.994 129.192C129.983 129.011 127.151 127.699 125.067 125.518C122.982 123.337 121.799 120.45 121.754 117.433C121.719 115.824 121.762 114.213 121.735 112.602C121.666 108.341 118.575 105.256 114.336 105.218C112.333 105.2 110.33 105.256 108.328 105.195C107.471 105.169 107.286 105.482 107.294 106.273C107.33 109.808 107.343 113.343 107.301 116.876C107.223 123.515 102.799 128.45 96.3374 129.166C92.3892 129.603 89.5199 126.233 90.881 122.728C91.6431 120.765 93.1749 119.821 95.226 119.641C100.001 119.22 102.504 116.501 102.508 111.707C102.513 104.206 102.513 96.7052 102.508 89.2041C102.508 86.9654 101.998 86.3664 99.8159 85.9874C97.5795 85.5991 96.2436 83.8901 96.5834 81.8545C96.9133 79.8783 98.8457 78.5914 100.995 78.9168C104.777 79.4895 107.268 82.4045 107.301 86.384C107.334 90.5473 107.331 94.7101 107.291 98.8724C107.28 99.9022 107.564 100.047 108.394 99.5423C110.841 98.0532 112.111 95.8972 112.114 93.0215C112.118 86.7766 112.093 80.5329 112.123 74.2888C112.153 68.0189 116.317 63.1713 122.489 62.1919C123.903 61.9673 125.305 61.9979 126.591 62.7949C127.431 63.3165 128.09 64.0837 128.479 64.9925C128.868 65.9013 128.969 66.9079 128.767 67.8757C128.554 68.8198 128.059 69.6767 127.346 70.332C126.634 70.9873 125.739 71.4099 124.781 71.5434C123.965 71.6544 123.128 71.677 122.335 71.8761C119.05 72.7009 116.917 75.5052 116.876 79.0919C116.835 82.7832 116.822 86.4757 116.878 90.1665C116.933 93.7296 116.938 97.2565 114.458 100.406Z" fill="#FFFF00"/>
<path d="M152.861 101.225C152.965 103.214 152.819 105.507 151.842 107.682C149.582 112.716 144.409 115.481 138.822 114.627C133.72 113.848 129.596 109.459 129.023 104.13C128.806 101.822 128.794 99.499 128.986 97.1888C129.228 93.7117 130.741 90.8716 133.462 88.7088C134.092 88.208 134.055 87.9311 133.558 87.3504C132.188 85.8073 131.412 83.8265 131.37 81.7633C131.331 79.8012 131.267 77.8321 131.383 75.8764C131.513 73.417 132.592 71.1039 134.392 69.4233C136.192 67.7426 138.574 66.8252 141.036 66.864C143.498 66.9124 145.848 67.9026 147.602 69.631C149.356 71.3594 150.381 73.6943 150.466 76.1554C150.526 77.7635 150.502 79.3756 150.479 80.9863C150.455 82.5058 149.61 83.4843 148.302 83.5816C146.885 83.6862 145.972 82.8713 145.727 81.2842C145.233 78.0866 143.444 76.3701 140.697 76.4599C139.55 76.5069 138.457 76.9647 137.619 77.7497C136.781 78.5348 136.252 79.5948 136.13 80.7368C135.914 83.2519 137.523 85.4621 139.92 85.9346C140.227 85.9952 140.54 86.0334 140.851 86.076C142.477 86.3039 143.297 87.1638 143.235 88.574C143.173 89.9382 142.243 90.742 140.595 90.8362C139.356 90.8953 138.153 91.2721 137.101 91.9304C136.05 92.5888 135.185 93.5066 134.591 94.5955C133.997 95.6845 133.693 96.908 133.708 98.1485C133.723 99.389 134.057 100.605 134.678 101.679C136.218 104.265 139.244 105.682 142.104 105.154C145.015 104.617 147.388 102.339 147.932 99.5322C148.043 98.956 148.073 98.3647 148.15 97.7813C148.21 97.2096 148.477 96.6796 148.9 96.2908C149.324 95.902 149.874 95.6811 150.449 95.6698C151.044 95.6642 151.62 95.8811 152.064 96.2781C152.508 96.6751 152.787 97.2236 152.848 97.8159C152.856 97.8941 152.86 97.9728 152.859 98.0515C152.861 98.9946 152.861 99.9372 152.861 101.225Z" fill="#FFFF00"/>
<path d="M91.6309 99.9846C91.6309 103.635 91.7597 107.29 91.6019 110.933C91.3365 117.056 85.9718 122.009 79.8452 121.979C77.1569 121.966 75.1017 120.052 74.9495 117.42C74.8031 114.892 76.7876 112.731 79.4682 112.497C83.4432 112.153 86.0552 110.092 86.7707 106.674C86.8893 105.978 86.9372 105.272 86.9135 104.567C86.9246 99.3462 86.9135 94.1255 86.9234 88.9048C86.9262 87.3149 87.6617 86.3143 88.9076 86.1286C90.5336 85.8866 91.6648 86.9392 91.6784 88.7974C91.7044 92.5264 91.686 96.2554 91.686 99.9846H91.6309Z" fill="#FFFF00"/>
<path d="M86.9233 75.6347C86.6876 72.2205 87.4808 68.7469 90.1692 65.9021C92.5529 63.3806 95.495 62.0762 98.9761 62.1055C100.166 62.106 101.312 62.5608 102.178 63.377C103.044 64.1932 103.566 65.3093 103.637 66.4974C103.789 69.1506 102.074 71.272 99.4481 71.5465C97.5473 71.7454 95.7267 72.0414 94.2355 73.3952C92.8411 74.6612 91.955 76.167 91.767 78.0577C91.7321 78.4093 91.7029 78.7621 91.6491 79.1106C91.4408 80.4331 90.5114 81.2327 89.2379 81.1964C88.0038 81.1615 87.0849 80.2681 86.9362 78.9577C86.9281 78.8794 86.9243 78.8007 86.925 78.722C86.9231 77.8187 86.9233 76.9162 86.9233 75.6347Z" fill="#FFFF00"/>
<path d="M21.5331 109.226C21.5615 109.42 21.5131 109.616 21.3982 109.775C21.2833 109.933 21.111 110.04 20.9183 110.072L3.44349 112.84C3.25014 112.868 3.05337 112.82 2.89526 112.705C2.73715 112.59 2.63025 112.418 2.59747 112.225L1.17531 103.244C0.901006 101.513 0.888751 100.064 1.13855 98.8964C1.32648 97.8404 1.85541 96.8751 2.64436 96.1484C3.39846 95.4838 4.40679 95.0518 5.66927 94.8523C6.20868 94.7579 6.76306 94.7988 7.28279 94.9713C8.12178 95.2516 8.85719 95.7775 9.39356 96.4809C9.60175 95.7021 10.0229 94.9968 10.6098 94.4442C11.2319 93.822 12.0382 93.417 12.9088 93.2894C14.2615 93.0755 15.4222 93.1968 16.3911 93.6533C17.3982 94.1461 18.2267 94.9406 18.7613 95.9262C19.3726 96.9849 19.8082 98.3346 20.0682 99.9754L21.5331 109.226ZM8.75678 105.066L8.39674 102.794C8.3856 102.627 8.33103 102.467 8.23853 102.328C8.14603 102.19 8.01883 102.078 7.86957 102.004C7.59992 101.877 7.29852 101.833 7.00375 101.877C6.70585 101.928 6.42883 102.063 6.20583 102.267C6.08315 102.382 5.9934 102.527 5.94583 102.688C5.89827 102.85 5.89464 103.02 5.93531 103.183L6.29466 105.456L8.75678 105.066ZM15.9252 103.931L15.5267 101.415C15.5147 101.227 15.453 101.045 15.3478 100.889C15.2426 100.733 15.0978 100.607 14.9282 100.525C14.6406 100.389 14.3197 100.339 14.0041 100.381C13.6763 100.434 13.3751 100.594 13.1473 100.835C13.0235 100.967 12.934 101.127 12.8866 101.301C12.8392 101.476 12.8354 101.659 12.8756 101.835L13.2743 104.351L15.9252 103.931Z" fill="#8F39FB"/>
<path d="M20.2669 82.4938C20.1118 84.07 19.661 85.603 18.938 87.0122C18.3161 88.2236 17.3331 89.2118 16.125 89.8401C14.9323 90.4544 13.4834 90.6617 11.7783 90.462L0.652595 89.1595C0.458789 89.1344 0.282495 89.0346 0.16132 88.8813C0.0401455 88.7279 -0.0162941 88.5333 0.00408255 88.339L0.628316 83.007C0.653337 82.8132 0.753151 82.6369 0.906431 82.5157C1.05971 82.3946 1.25429 82.3381 1.44862 82.3585L12.4655 83.6485C13.1368 83.727 13.6733 83.6198 14.0751 83.3268C14.4768 83.0338 14.7171 82.5517 14.7959 81.8806C14.8745 81.2099 14.752 80.6854 14.4285 80.3071C14.0372 79.8966 13.5035 79.6516 12.9371 79.6225L1.91993 78.3328C1.7261 78.3079 1.54975 78.2081 1.42854 78.0548C1.30734 77.9015 1.25092 77.7068 1.27142 77.5125L1.89565 72.1808C1.92062 71.9869 2.02047 71.8106 2.17383 71.6894C2.32718 71.5682 2.52189 71.5119 2.71625 71.5325L13.842 72.8347C15.5467 73.0342 16.9087 73.5705 17.9278 74.4435C18.9557 75.3306 19.6839 76.514 20.0126 77.8313C20.3919 79.3553 20.4781 80.9375 20.2669 82.4938Z" fill="#8F39FB"/>
<path d="M21.7829 71.3548C21.7081 71.5353 21.5655 71.6794 21.3858 71.7563C21.2061 71.8331 21.0034 71.8365 20.8212 71.7658L4.39981 65.1806C4.2193 65.1057 4.07525 64.9631 3.99845 64.7834C3.92166 64.6037 3.91817 64.4011 3.98879 64.2189L7.00519 56.6949C7.98394 54.2543 9.29926 52.5686 10.9512 51.6377C12.6032 50.7069 14.3863 50.6253 16.3006 51.3931C17.3511 51.7852 18.2697 52.4656 18.951 53.3561C19.568 54.177 19.9892 55.1282 20.1821 56.1368L27.2315 55.3342C27.3363 55.322 27.4424 55.3344 27.5416 55.3703C27.689 55.4309 27.8068 55.5469 27.8694 55.6935C27.9321 55.84 27.9347 56.0053 27.8767 56.1538L25.7869 61.3646C25.7423 61.5064 25.6698 61.6378 25.5736 61.7511C25.4775 61.8644 25.3596 61.9574 25.227 62.0245C25.0494 62.1104 24.8579 62.1636 24.6615 62.1816L18.9296 62.4208L18.5115 63.4631L23.366 65.4099C23.5467 65.4846 23.6909 65.627 23.7678 65.8067C23.8447 65.9864 23.8482 66.1891 23.7775 66.3714L21.7829 71.3548ZM13.6848 61.5279L14.429 59.6719C14.5073 59.5091 14.5444 59.3295 14.537 59.149C14.5296 58.9685 14.478 58.7925 14.3866 58.6367C14.2039 58.3383 13.9279 58.1085 13.6014 57.983C13.2653 57.8475 12.8983 57.8076 12.541 57.8675C12.3531 57.9027 12.1785 57.9888 12.0362 58.1165C11.894 58.2441 11.7895 58.4084 11.7343 58.5914L10.9901 60.4472L13.6848 61.5279Z" fill="#8F39FB"/>
<path d="M29.1276 54.2419C29.0094 54.3975 28.8349 54.5006 28.6416 54.5292C28.4482 54.5578 28.2514 54.5096 28.0931 54.3948L13.885 43.8514C13.7296 43.733 13.6265 43.5585 13.5979 43.3653C13.5693 43.172 13.6173 42.9752 13.7318 42.8168L16.8493 38.616C16.9676 38.4604 17.142 38.3573 17.3354 38.3287C17.5287 38.3002 17.7256 38.3484 17.8838 38.4631L22.2385 41.6946L19.6182 35.8959C19.5515 35.7157 19.5195 35.5245 19.524 35.3324C19.5367 35.0851 19.6285 34.8484 19.786 34.6573L23.3932 29.7964C23.4893 29.6693 23.6314 29.585 23.789 29.5617C23.9467 29.5384 24.1071 29.5779 24.2359 29.6718C24.3218 29.7342 24.3887 29.8192 24.4292 29.9173L28.1334 38.8053L38.6505 39.8909C38.7573 39.8963 38.8594 39.9363 38.9415 40.0048C39.0688 40.1008 39.1532 40.243 39.1765 40.4007C39.1998 40.5584 39.1602 40.719 39.0662 40.8477L35.345 45.8622C35.2684 45.9864 35.168 46.0941 35.0494 46.179C34.9309 46.264 34.7966 46.3245 34.6544 46.3571C34.495 46.389 34.3322 46.4 34.17 46.3899L27.3843 45.5151L32.0908 49.0077C32.2464 49.1259 32.3497 49.3004 32.3783 49.4937C32.407 49.6871 32.3589 49.884 32.2442 50.0423L29.1276 54.2419Z" fill="#8F39FB"/>
<path d="M39.1059 40.6882C38.98 40.786 38.8208 40.8304 38.6625 40.812C38.5042 40.7936 38.3594 40.7138 38.2594 40.5897C38.218 40.5396 38.1851 40.4831 38.1618 40.4224L32.1074 22.9307C32.0217 22.7043 31.9964 22.4595 32.0341 22.2204C32.0583 22.0675 32.1132 21.9211 32.1955 21.79C32.2777 21.6589 32.3856 21.5457 32.5127 21.4574L37.1733 17.7689C37.2884 17.6654 37.4233 17.5864 37.5699 17.5364C37.7164 17.4865 37.8715 17.4667 38.0259 17.4783C38.2672 17.4969 38.4997 17.5776 38.7005 17.7128L54.3334 27.6245C54.3874 27.6611 54.4351 27.7061 54.4748 27.7578C54.5726 27.8837 54.617 28.0428 54.5986 28.2011C54.5802 28.3594 54.5004 28.5041 54.3764 28.6041L50.4032 31.7484C50.3053 31.8418 50.1901 31.915 50.0639 31.9639C49.9377 32.0127 49.8032 32.0363 49.668 32.0331C49.4829 32.0184 49.3032 31.9642 49.1408 31.8743L47.5037 30.8649L42.8863 34.519L43.4924 36.3444C43.5428 36.5204 43.5578 36.7046 43.5367 36.8864C43.5085 37.0212 43.4535 37.1489 43.3751 37.262C43.2966 37.3752 43.1961 37.4713 43.0797 37.5448L39.1059 40.6882ZM40.6662 29.4642L43.0934 27.5434L38.7079 24.5178L40.6662 29.4642Z" fill="#8F39FB"/>
<path d="M55.9797 27.9702C55.799 28.0447 55.5964 28.0456 55.4151 27.9727C55.2338 27.8998 55.0882 27.7588 55.0095 27.5799L48.0711 11.3046C47.9967 11.1239 47.9958 10.9213 48.0687 10.74C48.1416 10.5587 48.2825 10.4131 48.4613 10.3342L55.9187 7.15498C58.338 6.12406 60.4604 5.86484 62.2856 6.37732C64.1108 6.88979 65.4284 8.0946 66.2382 9.99179C66.7029 11.0123 66.8702 12.1431 66.7209 13.2544C66.576 14.2711 66.2001 15.241 65.6222 16.0898L71.17 20.5131C71.2528 20.5786 71.3191 20.6625 71.3637 20.7582C71.425 20.9053 71.426 21.0706 71.3666 21.2184C71.3071 21.3663 71.1919 21.4848 71.0458 21.5486L65.8812 23.7503C65.7493 23.8191 65.605 23.8609 65.4567 23.873C65.3084 23.8851 65.1591 23.8675 65.0178 23.821C64.8318 23.7562 64.659 23.6583 64.5078 23.5321L60.2896 19.6438L59.2567 20.0844L61.3083 24.8963C61.3827 25.077 61.3834 25.2796 61.3105 25.4608C61.2375 25.6421 61.0967 25.7877 60.9179 25.8665L55.9797 27.9702ZM57.216 15.2959L59.054 14.5119C59.2247 14.4526 59.3781 14.3521 59.5007 14.2193C59.6233 14.0865 59.7113 13.9256 59.7568 13.7507C59.8391 13.4107 59.807 13.0529 59.6653 12.7329C59.5238 12.3994 59.293 12.1115 58.9982 11.9008C58.8405 11.7927 58.6561 11.73 58.4652 11.7196C58.2743 11.7091 58.0842 11.7513 57.9156 11.8415L56.0775 12.6252L57.216 15.2959Z" fill="#8F39FB"/>
<path d="M85.8734 19.7008C84.2762 19.854 82.6644 19.6953 81.1278 19.2332C79.8157 18.8325 78.6498 18.0559 77.7744 16.9995C76.9174 15.9562 76.3917 14.6269 76.1974 13.0117C76.1232 12.267 76.0547 11.4758 75.9917 10.6379C75.9287 9.80011 75.877 8.98908 75.8366 8.20482C75.7895 6.59733 76.1063 5.20954 76.7872 4.04148C77.4936 2.84979 78.5269 1.88558 79.7645 1.26311C82.7004 -0.128766 86.0488 -0.380132 89.1597 0.557796C90.4788 0.99056 91.6482 1.78837 92.5323 2.85873C93.3891 3.91132 93.9052 5.23665 94.0803 6.83471C94.1746 7.6152 94.2537 8.42428 94.3177 9.26196C94.3816 10.0996 94.4228 10.893 94.4414 11.6421C94.4901 13.2684 94.169 14.6612 93.478 15.8205C92.7703 16.996 91.7333 17.9382 90.4956 18.5305C89.0453 19.2166 87.4754 19.6141 85.8734 19.7008V19.7008ZM85.4728 14.375C85.7384 14.3676 85.9998 14.307 86.2416 14.1969C86.4834 14.0868 86.7007 13.9293 86.8806 13.7338C87.2177 13.3515 87.367 12.7774 87.3284 12.0113C87.3058 11.2258 87.2658 10.4507 87.2084 9.6859C87.1511 8.92112 87.0762 8.16703 86.9838 7.42362C86.9502 6.98873 86.8198 6.56685 86.6023 6.18879C86.4263 5.8938 86.1644 5.65955 85.8517 5.51739C85.5181 5.38863 85.1599 5.33573 84.8033 5.36251C84.4467 5.38929 84.1004 5.49508 83.7897 5.67223C83.4952 5.85646 83.2658 6.12844 83.1339 6.44989C82.9749 6.85616 82.9091 7.29299 82.9416 7.72808C82.9793 8.47605 83.0269 9.23227 83.0844 9.99674C83.1419 10.7612 83.2092 11.5344 83.2862 12.3163C83.3804 13.0781 83.6182 13.6232 83.9995 13.9517C84.2035 14.1185 84.4393 14.242 84.6926 14.3148C84.9459 14.3875 85.2114 14.4079 85.4728 14.3747V14.375Z" fill="#8F39FB"/>
<path d="M104.822 20.8099C103.26 20.537 101.76 19.983 100.396 19.1749C99.2182 18.4747 98.2769 17.4383 97.6928 16.1988C97.1203 14.9734 96.9625 13.5019 97.2196 11.7843C97.3432 11.0459 97.4864 10.2552 97.6492 9.41219C97.8119 8.56918 97.9765 7.76418 98.1428 6.9972C98.5356 5.34369 99.2347 4.05613 100.24 3.13456C101.265 2.20308 102.536 1.58645 103.902 1.35843C105.446 1.09778 107.024 1.12799 108.557 1.4475C109.676 1.66009 110.766 2.00608 111.803 2.47804C112.781 2.91876 113.679 3.52092 114.458 4.25935C115.199 4.96243 115.762 5.83118 116.102 6.7943C116.451 7.85431 116.516 8.98729 116.291 10.0803C116.259 10.2367 116.167 10.3744 116.035 10.4637C115.903 10.553 115.741 10.5868 115.584 10.5577L110.098 9.49939C109.87 9.47453 109.657 9.36938 109.5 9.20269C109.365 9.00056 109.28 8.76904 109.253 8.52754C109.167 7.91593 108.972 7.47865 108.67 7.21565C108.339 6.93973 107.941 6.757 107.517 6.68636C107.009 6.56059 106.472 6.6313 106.014 6.88432C105.604 7.13082 105.301 7.66292 105.106 8.48065C104.769 9.94061 104.478 11.4465 104.235 12.9984C104.111 13.83 104.194 14.4364 104.483 14.8179C104.814 15.2233 105.286 15.4887 105.804 15.5607C106.233 15.6533 106.678 15.6233 107.09 15.4742C107.533 15.2788 107.891 14.9326 108.101 14.4974C108.197 14.2697 108.361 14.0772 108.57 13.9464C108.786 13.8627 109.023 13.8498 109.247 13.9097L114.733 14.968C114.889 14.9995 115.027 15.0911 115.116 15.2231C115.205 15.3552 115.239 15.517 115.21 15.6738C115.013 16.7723 114.531 17.7998 113.812 18.6537C113.139 19.4213 112.292 20.0181 111.343 20.3949C110.346 20.791 109.289 21.0161 108.216 21.0606C107.079 21.1129 105.939 21.0287 104.822 20.8099V20.8099Z" fill="#8F39FB"/>
<path d="M115.542 22.9881C115.368 22.9041 115.233 22.7547 115.168 22.5722C115.134 22.4788 115.119 22.3791 115.127 22.2798C115.134 22.1805 115.162 22.0839 115.21 21.9965L123.089 6.15504C123.179 5.98122 123.332 5.84913 123.517 5.78697C123.703 5.7248 123.905 5.73748 124.081 5.82229L128.888 8.21325C129.062 8.30213 129.194 8.45567 129.257 8.64095C129.319 8.82623 129.306 9.02851 129.221 9.20442L126.66 14.3542L130.632 16.3302L133.194 11.1804C133.283 11.0065 133.436 10.8744 133.622 10.8122C133.807 10.75 134.009 10.7628 134.185 10.8476L138.991 13.2386C139.165 13.3275 139.297 13.4811 139.36 13.6663C139.422 13.8516 139.409 14.0538 139.324 14.2298L131.443 30.0708C131.354 30.2448 131.2 30.3771 131.015 30.4393C130.829 30.5015 130.627 30.4886 130.451 30.4035L125.644 28.013C125.47 27.924 125.338 27.7704 125.276 27.5851C125.213 27.3998 125.226 27.1975 125.311 27.0216L127.946 21.7245L123.974 19.749L121.34 25.0456C121.251 25.2197 121.097 25.3519 120.912 25.4141C120.727 25.4763 120.524 25.4635 120.348 25.3784L115.542 22.9881Z" fill="#8F39FB"/>
<path d="M136.974 35.2614C136.839 35.12 136.765 34.9315 136.767 34.7361C136.769 34.5406 136.848 34.3539 136.986 34.2156L149.64 21.851C149.782 21.7161 149.97 21.6418 150.166 21.6441C150.361 21.6463 150.548 21.7249 150.686 21.863L157.041 28.3671C158.266 29.6208 159.115 30.7959 159.586 31.8925C160.043 32.8628 160.17 33.9561 159.947 35.0053C159.716 35.9837 159.143 36.9197 158.229 37.8131C157.844 38.2018 157.368 38.489 156.844 38.649C155.998 38.9055 155.093 38.9018 154.249 38.6384C154.53 39.3941 154.594 40.2131 154.435 41.0034C154.287 41.8708 153.863 42.6674 153.227 43.2746C152.247 44.2314 151.23 44.8039 150.176 44.9921C149.069 45.1726 147.934 45.0037 146.928 44.509C145.817 43.9989 144.681 43.1496 143.52 41.9611L136.974 35.2614ZM144.611 36.3377L146.391 38.1595C146.51 38.3059 146.665 38.4182 146.841 38.4849C147.017 38.5516 147.208 38.5704 147.394 38.5392C147.707 38.4839 147.998 38.3393 148.232 38.1228C148.468 37.8898 148.622 37.5853 148.668 37.2565C148.693 37.0776 148.673 36.8953 148.611 36.7257C148.549 36.5561 148.446 36.4044 148.311 36.2839L146.531 34.4619L144.611 36.3377ZM149.803 31.2654L151.41 32.911C151.516 33.0402 151.653 33.1395 151.809 33.1991C151.964 33.2587 152.133 33.2765 152.297 33.2508C152.591 33.1986 152.862 33.0601 153.077 32.853C153.29 32.6395 153.438 32.3688 153.501 32.0735C153.535 31.9089 153.524 31.7383 153.47 31.5794C153.415 31.4204 153.32 31.2788 153.192 31.1693L151.584 29.5237L149.803 31.2654Z" fill="#8F39FB"/>
<path d="M149.838 49.1948C149.743 49.0242 149.718 48.8231 149.769 48.6343C149.82 48.4456 149.942 48.2843 150.111 48.185L165.448 39.3644C165.618 39.269 165.819 39.244 166.008 39.2948C166.197 39.3457 166.358 39.4684 166.457 39.6366L173.462 51.8165C173.557 51.987 173.582 52.1881 173.531 52.3768C173.481 52.5655 173.358 52.7268 173.19 52.8263L169.842 54.7511C169.672 54.8468 169.47 54.8719 169.282 54.8211C169.093 54.7702 168.932 54.6475 168.832 54.4791L164.736 47.3565L163.24 48.2164L167.036 54.8168C167.132 54.9873 167.157 55.1884 167.106 55.3771C167.055 55.5658 166.932 55.727 166.764 55.8264L163.677 57.6016C163.506 57.6971 163.305 57.722 163.117 57.6711C162.928 57.6202 162.767 57.4975 162.667 57.3292L158.871 50.7289L157.376 51.5891L161.581 58.9014C161.676 59.072 161.701 59.2731 161.651 59.4618C161.6 59.6505 161.477 59.8118 161.309 59.9112L157.961 61.8363C157.791 61.9319 157.59 61.957 157.401 61.9061C157.212 61.8552 157.051 61.7325 156.952 61.5641L149.838 49.1948Z" fill="#8F39FB"/>
<path d="M157.706 62.5999C157.665 62.4457 157.687 62.2817 157.766 62.1433C157.846 62.005 157.976 61.9034 158.13 61.8604C158.192 61.8423 158.257 61.8344 158.322 61.8369L176.786 63.149C177.028 63.1595 177.263 63.2326 177.468 63.3611C177.599 63.4436 177.712 63.5517 177.8 63.679C177.888 63.8063 177.95 63.9501 177.981 64.1018L179.539 69.8369C179.589 69.9835 179.609 70.1386 179.597 70.2929C179.585 70.4472 179.543 70.5976 179.471 70.735C179.359 70.9497 179.194 71.1316 178.99 71.2631L163.73 81.7387C163.675 81.7734 163.615 81.7991 163.552 81.815C163.398 81.8557 163.233 81.834 163.095 81.7546C162.957 81.6752 162.855 81.5446 162.812 81.3909L161.484 76.5012C161.388 76.2455 161.398 75.9622 161.511 75.7137C161.597 75.5492 161.718 75.4051 161.865 75.2909L163.437 74.1833L161.893 68.501L159.976 68.3405C159.794 68.3174 159.619 68.2588 159.461 68.168C159.348 68.0892 159.252 67.9885 159.179 67.8719C159.106 67.7553 159.057 67.6252 159.035 67.4893L157.706 62.5999ZM167.412 68.4484L168.223 71.4353L172.73 68.5931L167.412 68.4484Z" fill="#8F39FB"/>
<path d="M162.634 85.4916C162.629 85.2963 162.7 85.1067 162.833 84.9635C162.966 84.8202 163.15 84.7345 163.345 84.7248L175.879 84.2476L175.707 79.7044C175.701 79.5091 175.773 79.3195 175.906 79.1762C176.038 79.0328 176.222 78.9471 176.417 78.9373L180.824 78.7698C181.019 78.7647 181.209 78.8361 181.352 78.9689C181.495 79.1016 181.581 79.2852 181.591 79.4803L182.202 95.518C182.207 95.7134 182.135 95.903 182.003 96.0464C181.87 96.1898 181.686 96.2755 181.491 96.2854L177.084 96.4529C176.889 96.4583 176.699 96.3869 176.556 96.2541C176.412 96.1212 176.327 95.9374 176.317 95.7422L176.144 91.1992L163.609 91.6761C163.414 91.6815 163.224 91.6101 163.081 91.4773C162.937 91.3445 162.852 91.1609 162.842 90.9656L162.634 85.4916Z" fill="#8F39FB"/>
<path d="M161.007 105.517C161.424 103.534 162.036 101.955 162.843 100.781C163.65 99.6073 164.558 98.791 165.569 98.3324C166.502 97.884 167.55 97.7331 168.571 97.9002C168.727 97.9344 168.863 98.0284 168.95 98.1619C169.037 98.2954 169.068 98.4578 169.036 98.614L167.965 103.706C167.929 103.934 167.841 104.15 167.706 104.337C167.573 104.492 167.426 104.635 167.266 104.763C167.106 104.912 166.955 105.072 166.816 105.242C166.67 105.422 166.552 105.624 166.466 105.84C166.185 106.565 166.069 107.344 166.126 108.119C166.183 108.513 166.328 108.735 166.56 108.784C166.669 108.806 166.781 108.799 166.886 108.765C166.991 108.73 167.086 108.67 167.161 108.589C167.42 108.301 167.627 107.97 167.773 107.612C168.065 106.952 168.324 106.278 168.547 105.592C168.969 104.36 169.563 103.194 170.311 102.129C170.918 101.252 171.756 100.561 172.732 100.133C173.74 99.7355 174.846 99.6602 175.898 99.9179C177.059 100.142 178.113 100.742 178.898 101.626C179.712 102.572 180.253 103.721 180.465 104.951C180.723 106.423 180.681 107.933 180.343 109.389C180.109 110.602 179.679 111.769 179.07 112.844C178.569 113.727 177.92 114.519 177.151 115.183C176.519 115.732 175.788 116.158 174.998 116.437C174.367 116.668 173.689 116.737 173.025 116.637C172.947 116.622 172.873 116.591 172.808 116.546C172.743 116.501 172.688 116.443 172.646 116.376C172.603 116.315 172.572 116.246 172.556 116.173C172.54 116.1 172.539 116.024 172.554 115.95L173.681 110.59C173.716 110.382 173.796 110.184 173.915 110.01C174.036 109.857 174.177 109.722 174.336 109.609C174.494 109.487 174.633 109.342 174.748 109.178C174.935 108.913 175.061 108.61 175.117 108.29C175.212 107.957 175.214 107.604 175.122 107.27C175.086 107.162 175.022 107.066 174.937 106.992C174.852 106.917 174.748 106.867 174.637 106.845C174.547 106.831 174.455 106.837 174.368 106.862C174.28 106.887 174.2 106.931 174.131 106.991C173.886 107.214 173.694 107.49 173.569 107.797C173.302 108.378 173.064 108.972 172.859 109.578C172.268 111.32 171.623 112.681 170.922 113.662C170.221 114.644 169.426 115.298 168.536 115.623C167.543 115.955 166.476 115.997 165.46 115.746C164.226 115.514 163.115 114.848 162.328 113.87C161.511 112.813 160.987 111.559 160.812 110.234C160.589 108.663 160.655 107.064 161.007 105.517Z" fill="#8F39FB"/>
<path d="M145.871 130.847C147.313 128.848 148.821 127.443 150.396 126.631C151.837 125.848 153.476 125.504 155.111 125.641C156.688 125.795 158.21 126.299 159.568 127.116C159.786 127.25 160.068 127.437 160.414 127.675C160.76 127.914 161.126 128.171 161.511 128.449C161.896 128.726 162.256 128.992 162.591 129.245C162.927 129.498 163.185 129.701 163.367 129.855C164.206 130.581 164.922 131.439 165.486 132.395C166.086 133.407 166.49 134.523 166.677 135.684C166.875 136.958 166.816 138.259 166.502 139.509C166.118 140.995 165.444 142.391 164.52 143.617C163.303 145.306 162.101 146.566 160.914 147.4C159.878 148.17 158.674 148.684 157.401 148.901C156.27 149.071 155.116 148.994 154.019 148.674C152.894 148.344 151.816 147.873 150.809 147.273C150.503 147.099 150.206 146.908 149.922 146.7C149.603 146.471 149.284 146.235 148.964 145.993C148.643 145.752 148.355 145.527 148.099 145.319C147.438 144.808 146.94 144.115 146.667 143.325C146.423 142.604 146.369 141.832 146.509 141.084C146.635 140.379 146.915 139.71 147.33 139.126C147.646 138.677 148.018 138.27 148.438 137.917C148.772 137.632 149.142 137.394 149.539 137.208C149.832 137.07 150.144 136.976 150.465 136.931C150.351 136.66 150.272 136.376 150.23 136.086C150.184 135.675 150.23 135.258 150.365 134.867C150.593 134.231 150.92 133.635 151.335 133.101C152.136 131.99 153.177 131.429 154.456 131.418C155.735 131.407 157.049 131.887 158.397 132.858C159.76 133.84 160.649 134.926 161.064 136.114C161.479 137.303 161.291 138.445 160.501 139.541C160.189 140.016 159.775 140.415 159.288 140.709C158.872 140.928 158.408 141.04 157.938 141.035L158.139 141.18C158.296 141.296 158.401 141.469 158.432 141.662C158.463 141.855 158.418 142.052 158.306 142.212L157.153 143.811C157.037 143.969 156.863 144.074 156.671 144.106C156.478 144.137 156.28 144.092 156.12 143.979L151.831 140.888C151.551 140.656 151.197 140.533 150.833 140.54C150.666 140.56 150.506 140.618 150.364 140.709C150.223 140.8 150.104 140.921 150.016 141.065C149.87 141.249 149.78 141.471 149.756 141.705C149.744 141.911 149.798 142.115 149.91 142.288C150.043 142.492 150.215 142.667 150.415 142.805C150.815 143.093 151.198 143.374 151.563 143.649C151.928 143.923 152.306 144.179 152.698 144.416C153.826 145.162 154.876 145.593 155.85 145.71C156.879 145.812 157.909 145.534 158.745 144.927C159.7 144.287 160.728 143.205 161.828 141.68C162.757 140.391 163.302 139.198 163.464 138.099C163.636 137.074 163.503 136.021 163.081 135.071C162.642 134.121 162.014 133.272 161.234 132.574C161.004 132.363 160.662 132.088 160.208 131.75C159.754 131.411 159.291 131.078 158.82 130.749C158.348 130.42 157.961 130.168 157.658 129.995C156.088 129.111 154.547 128.844 153.035 129.193C151.522 129.543 150.029 130.74 148.556 132.784C148.077 133.432 147.637 134.106 147.236 134.803C146.974 135.257 146.776 135.745 146.647 136.253C146.546 136.704 146.502 137.165 146.516 137.627C146.521 137.823 146.51 138.018 146.484 138.211C146.454 138.369 146.387 138.518 146.289 138.645L144.72 140.822C144.605 140.983 144.434 141.095 144.241 141.135C144.139 141.157 144.033 141.154 143.933 141.126C143.833 141.098 143.741 141.046 143.665 140.974C143.607 140.932 143.56 140.875 143.531 140.809C143.497 140.734 143.468 140.657 143.444 140.578C143.226 139.685 143.133 138.766 143.168 137.847C143.214 136.723 143.438 135.614 143.832 134.561C144.335 133.234 145.021 131.984 145.871 130.847V130.847ZM153.546 135.704C153.401 135.887 153.293 136.096 153.23 136.32C153.167 136.544 153.15 136.779 153.178 137.01C153.243 137.45 153.639 137.932 154.364 138.456C155.09 138.98 155.676 139.205 156.122 139.132C156.352 139.09 156.572 139.002 156.766 138.872C156.961 138.743 157.128 138.575 157.256 138.379C157.394 138.199 157.494 137.993 157.551 137.773C157.608 137.553 157.621 137.324 157.588 137.099C157.521 136.646 157.124 136.157 156.398 135.634C156.028 135.343 155.603 135.129 155.149 135.003C154.84 134.918 154.51 134.951 154.223 135.094C153.954 135.244 153.722 135.452 153.546 135.704H153.546Z" fill="#FFFF00"/>
<path d="M134.678 147.839C134.838 147.727 135.036 147.684 135.229 147.717C135.422 147.75 135.594 147.857 135.708 148.016L142.946 158.261L146.659 155.637C146.82 155.526 147.018 155.483 147.211 155.516C147.403 155.549 147.575 155.656 147.69 155.814L150.235 159.416C150.346 159.577 150.39 159.775 150.357 159.967C150.324 160.16 150.216 160.332 150.058 160.446L136.95 169.708C136.789 169.819 136.591 169.862 136.398 169.829C136.206 169.796 136.034 169.689 135.919 169.531L133.374 165.929C133.263 165.768 133.219 165.57 133.253 165.378C133.286 165.185 133.393 165.013 133.551 164.898L137.265 162.275L130.027 152.03C129.916 151.869 129.872 151.671 129.905 151.479C129.938 151.286 130.046 151.114 130.204 151L134.678 147.839Z" fill="#8F39FB"/>
<path d="M127.075 153.627C127.223 153.568 127.389 153.57 127.535 153.633C127.682 153.695 127.798 153.812 127.859 153.959C127.885 154.019 127.901 154.083 127.906 154.148L128.792 172.637C128.81 172.878 128.765 173.121 128.662 173.34C128.595 173.479 128.502 173.604 128.386 173.707C128.27 173.81 128.134 173.888 127.988 173.937L122.477 176.164C122.338 176.231 122.186 176.269 122.031 176.275C121.877 176.282 121.722 176.257 121.577 176.203C121.351 176.117 121.151 175.974 120.996 175.788L108.786 161.876C108.745 161.826 108.712 161.769 108.689 161.709C108.63 161.56 108.632 161.395 108.695 161.248C108.757 161.102 108.874 160.985 109.022 160.924L113.719 159.026C113.962 158.9 114.244 158.876 114.505 158.959C114.678 159.026 114.835 159.128 114.966 159.26L116.253 160.69L121.712 158.483L121.644 156.561C121.646 156.378 121.683 156.197 121.754 156.029C121.819 155.908 121.908 155.801 122.015 155.714C122.122 155.628 122.246 155.564 122.378 155.526L127.075 153.627ZM122.418 163.958L119.548 165.117L122.904 169.255L122.418 163.958Z" fill="#8F39FB"/>
<path d="M107.302 161.044C107.496 161.022 107.691 161.078 107.845 161.198C107.999 161.318 108.1 161.493 108.126 161.687L110.306 179.245C110.328 179.439 110.273 179.634 110.153 179.788C110.033 179.943 109.857 180.043 109.664 180.07L101.428 181.092C99.9639 181.305 98.4724 181.243 97.0309 180.907C95.8248 180.624 94.7339 179.979 93.904 179.06C93.1018 178.156 92.6073 176.953 92.4205 175.449C92.2337 173.946 92.4211 172.676 92.9826 171.64C93.5735 170.575 94.4798 169.72 95.5767 169.192C96.9047 168.55 98.3344 168.144 99.8017 167.992L101.704 167.756L101.06 162.565C101.038 162.371 101.093 162.176 101.213 162.022C101.333 161.867 101.509 161.766 101.703 161.74L107.302 161.044ZM102.465 172.767L100.562 173.003C100.251 173.05 99.9662 173.207 99.7612 173.447C99.5172 173.707 99.428 174.1 99.4937 174.625C99.542 174.985 99.6743 175.327 99.88 175.626C100.095 175.949 100.447 176.08 100.936 176.019L102.839 175.784L102.465 172.767Z" fill="#8F39FB"/>
<path d="M89.1991 162.893C89.3925 162.922 89.5673 163.024 89.6859 163.18C89.8046 163.335 89.8578 163.531 89.8342 163.725L87.4918 181.261C87.4639 181.455 87.3614 181.63 87.2062 181.749C87.0509 181.868 86.8552 181.921 86.6611 181.898L78.6252 180.824C76.0192 180.476 74.0617 179.616 72.7527 178.244C71.4437 176.871 70.9259 175.163 71.1993 173.118C71.3206 172.003 71.7539 170.946 72.4496 170.066C73.0934 169.266 73.9119 168.624 74.8422 168.189L72.3297 161.553C72.2923 161.454 72.2781 161.348 72.2882 161.243C72.3107 161.085 72.3943 160.943 72.5208 160.846C72.6474 160.749 72.807 160.705 72.9652 160.725L78.5305 161.468C78.6789 161.477 78.8242 161.514 78.9578 161.58C79.0913 161.645 79.2104 161.736 79.3081 161.848C79.4349 161.999 79.5337 162.171 79.5997 162.357L81.2417 167.854L82.355 168.003L83.0473 162.817C83.0755 162.624 83.1782 162.449 83.3334 162.331C83.4887 162.212 83.6842 162.159 83.8782 162.182L89.1991 162.893ZM81.6661 173.161L79.6843 172.897C79.5073 172.861 79.3241 172.869 79.1509 172.92C78.9777 172.972 78.82 173.065 78.6914 173.192C78.447 173.442 78.292 173.767 78.2505 174.114C78.2018 174.473 78.2535 174.839 78.3997 175.17C78.48 175.344 78.6064 175.492 78.7652 175.598C78.924 175.705 79.1089 175.765 79.2999 175.774L81.2818 176.039L81.6661 173.161Z" fill="#8F39FB"/>
<path d="M63.6248 156.716C65.1171 157.305 66.4805 158.179 67.6392 159.289C68.6258 160.243 69.3114 161.464 69.6111 162.803C69.9004 164.122 69.7644 165.545 69.2032 167.072C68.9307 167.769 68.6322 168.505 68.3077 169.28C67.9833 170.055 67.6608 170.801 67.3401 171.518C66.652 172.971 65.7389 174.063 64.6009 174.793C63.43 175.533 62.0716 175.923 60.6864 175.914C57.4385 175.82 54.3416 174.522 51.9971 172.273C51.0188 171.288 50.3397 170.046 50.0388 168.691C49.754 167.363 49.8967 165.948 50.467 164.445C50.737 163.707 51.0342 162.95 51.3587 162.176C51.6831 161.401 52.0069 160.676 52.3301 159.999C53.026 158.529 53.9451 157.434 55.0872 156.715C56.2521 155.99 57.6039 155.623 58.9755 155.658C60.5792 155.706 62.1583 156.065 63.6248 156.716V156.716ZM61.5604 161.641C61.3204 161.527 61.0601 161.462 60.7948 161.451C60.5294 161.439 60.2644 161.48 60.0153 161.573C59.5411 161.76 59.1474 162.203 58.8339 162.904C58.4969 163.614 58.18 164.322 57.8833 165.03C57.5865 165.737 57.3106 166.443 57.0554 167.147C56.8876 167.549 56.8117 167.984 56.8335 168.42C56.8561 168.763 56.983 169.09 57.1971 169.359C57.4359 169.625 57.7309 169.835 58.0607 169.973C58.3906 170.112 58.747 170.175 59.1042 170.158C59.4503 170.128 59.7782 169.99 60.0417 169.764C60.3679 169.475 60.6249 169.116 60.7936 168.714C61.1003 168.03 61.4016 167.335 61.6976 166.628C61.9936 165.921 62.2851 165.201 62.5721 164.47C62.8351 163.749 62.8712 163.155 62.6803 162.689C62.5745 162.448 62.4206 162.23 62.228 162.05C62.0355 161.87 61.8084 161.731 61.5604 161.642V161.641Z" fill="#8F39FB"/>
<path d="M47.2641 147.136C48.5496 148.096 49.6361 149.297 50.4628 150.672C51.1652 151.851 51.5065 153.209 51.4444 154.58C51.3773 155.929 50.8728 157.266 49.931 158.592C49.4853 159.193 49.0041 159.825 48.4874 160.488C47.9707 161.151 47.4638 161.786 46.9669 162.393C45.9218 163.616 44.7542 164.43 43.4641 164.837C42.1402 165.244 40.7273 165.263 39.3927 164.892C36.2834 163.949 33.6354 161.884 31.9627 159.099C31.2767 157.892 30.9473 156.515 31.0128 155.128C31.0859 153.773 31.5947 152.444 32.5394 151.144C32.9933 150.502 33.4784 149.85 33.9948 149.188C34.5112 148.526 35.0139 147.911 35.503 147.343C36.5601 146.106 37.7342 145.29 39.0251 144.897C40.3393 144.502 41.7403 144.502 43.0548 144.895C44.5899 145.362 46.0195 146.123 47.2641 147.136V147.136ZM43.98 151.347C43.7783 151.175 43.544 151.044 43.2911 150.963C43.0381 150.882 42.7714 150.852 42.5069 150.876C42.0002 150.933 41.5039 151.258 41.0178 151.851C40.5067 152.448 40.0151 153.048 39.5428 153.653C39.0706 154.257 38.6191 154.866 38.1885 155.479C37.9209 155.824 37.7337 156.224 37.6406 156.65C37.5725 156.986 37.6089 157.336 37.745 157.652C37.9055 157.971 38.135 158.252 38.417 158.472C38.6991 158.692 39.0266 158.846 39.3758 158.924C39.7176 158.986 40.0702 158.939 40.3839 158.789C40.7746 158.596 41.1168 158.317 41.3852 157.973C41.8601 157.394 42.3332 156.802 42.8043 156.197C43.2755 155.592 43.7455 154.974 44.2145 154.344C44.657 153.717 44.8474 153.154 44.7857 152.654C44.7472 152.393 44.6558 152.142 44.5173 151.918C44.3788 151.693 44.1959 151.499 43.98 151.347V151.347Z" fill="#8F39FB"/>
<path d="M38.4287 140.29C38.5409 140.45 38.586 140.647 38.5543 140.84C38.5227 141.033 38.4168 141.206 38.2593 141.322L23.8843 151.637C23.7242 151.749 23.5266 151.794 23.3338 151.762C23.141 151.731 22.9682 151.625 22.8524 151.467L20.3295 147.952C20.2325 147.836 20.1614 147.701 20.121 147.556C20.0806 147.41 20.0718 147.258 20.0952 147.109C20.1294 146.923 20.1791 146.741 20.2437 146.564L23.2685 139.505L15.6128 140.111C15.4244 140.115 15.2359 140.104 15.0494 140.077C14.9005 140.052 14.7587 139.995 14.6338 139.91C14.5089 139.825 14.4037 139.714 14.3252 139.585L11.8023 136.069C11.6903 135.909 11.6454 135.712 11.6772 135.519C11.7089 135.326 11.8148 135.153 11.9722 135.038L26.3471 124.722C26.5072 124.61 26.7048 124.565 26.8977 124.597C27.0905 124.629 27.2633 124.734 27.3791 124.892L30.2694 128.919C30.3815 129.079 30.4265 129.277 30.3948 129.47C30.3631 129.663 30.2572 129.835 30.0997 129.951L24.0028 134.327L27.4599 134.071C27.655 134.061 27.8504 134.073 28.0427 134.107C28.158 134.131 28.2675 134.177 28.3645 134.243C28.4614 134.31 28.5439 134.395 28.6069 134.495L29.7248 136.052C29.7988 136.144 29.8535 136.249 29.8855 136.363C29.9174 136.476 29.926 136.594 29.9107 136.711C29.882 136.904 29.8312 137.093 29.7594 137.275L28.4099 140.468L34.5069 136.093C34.6671 135.981 34.8647 135.936 35.0575 135.967C35.2503 135.999 35.4231 136.105 35.5389 136.262L38.4287 140.29Z" fill="#8F39FB"/>
</svg>
