<svg viewBox="0 0 1080 1080" xmlns="http://www.w3.org/2000/svg"><circle cx="540" cy="540" fill="#eeff02" r="529.27" stroke="#ffed00" stroke-miterlimit="10" stroke-width="1.06"/><path d="m413.87 338.39c-3.37 22-2.5 42.62 2.17 61.2 13.71 54.82 60.14 91.75 126 93.15 113 2.35 209.11 90.63 217.13 203.42.12 1.52.21 3.07.29 4.61 2.77 55.84 6.56 112-9.18 167.14-37 129.54-199.16 196-316.47 129.64-65-36.78-102.05-89.55-113.46-157.22a284.81 284.81 0 0 1 -3.88-44.45c-.25-22.58-.31-45.14-.06-67.7 0-3.33.06-6.65.1-10 .42-29.22 18.69-49 45.77-50.32 18.12-.9 34.51 9.16 42.68 25.62a51.15 51.15 0 0 1 4.64 14.41 47.41 47.41 0 0 1 .71 5.92 167 167 0 0 0 5.6 34.22c7.86 28.46 23.85 52.31 50.2 71.2 39.54 28.33 82.37 30.08 124.61 11.41 42.82-18.93 68.76-54.57 73.36-101.6a148.65 148.65 0 0 0 .65-20.33c-2.5-70-55.24-120.17-129.69-121.82-106-2.33-192.3-75.71-213.42-174.76a224.9 224.9 0 0 1 -5-47.58c0-41.2-3.61-82.59 3.08-123.64 17.5-107.26 110.21-185.18 219.53-184.54 108.77.63 201.51 80.12 218.46 186.63 1.33 8.33 2.21 16.68 2.73 25 1.87 28.55 0 57.13.58 85.69.21 10.83 1.19 19.52 3.36 26.45 0 3.34-.07 6.65-.11 10-.41 29.22-18.68 49-45.76 50.33-18.12.89-34.52-9.17-42.68-25.63a141.92 141.92 0 0 1 -4.65-14.41 190.7 190.7 0 0 1 -6.16-37.69c-.06-.83-.1-1.67-.19-2.48-5.25-67.38-44.81-110.61-111.65-121.85-61.16-10.29-129.91 39.07-139.29 99.98z"/></svg>